<?xml version="1.0" standalone="yes"?>
<svg xmlns="http://www.w3.org/2000/svg" width="222" height="71">
<path style="fill:#ffffff; stroke:none;" d="M0 0L0 29L1 29L4 21L6 21C9.41448 29.3949 5.59785 36.6173 8.22068 45C11.9561 56.9385 23.5069 64.7444 36 63.206C39.4532 62.7808 45.1976 61.9235 47.1721 58.6065C50.136 53.627 36.9677 36.9189 32 37L41 51C34.9374 50.9786 31.8277 49.8607 28 45L27 45C23.1723 49.8607 20.0626 50.9786 14 51L23 38L23 37C19.689 32.6925 8.53398 20.6943 10.3056 15.0401C14.8366 0.578842 40.7411 3.75183 50 9.46836C66.6897 19.7728 67.549 35.9835 63 53L61 53C57.6996 44.8988 59.9792 36.9394 57.034 29C50.7537 12.0708 33.5904 10.0543 19 16L28 30L32 22C41.0087 27.089 46.0951 39.5994 51.6674 48C53.5823 50.8868 57.7608 55.2291 57.1188 58.9853C56.0107 65.4685 45.5218 69.1723 40 70L40 71L222 71L222 55C210.078 56.2185 211 47.2481 211 38L208 38L208 33L211 33L211 27L217 27L217 33L221 33L221 38L217 38L218 51L221 52L222 52L222 0L71 0C71.8911 1.58459 73.0597 3.25137 73.5517 5.02469C77.2425 18.3272 51.6247 11.9601 64 1L44 0L0 0z"/>
<path style="fill:#EA6400; stroke:none;" d="M64.1088 0.743057C56.1161 4.11904 62.1959 16.1827 69.9452 13.2423C78.7439 9.90368 72.5963 -2.84195 64.1088 0.743057M23 37L23 38L14 51C20.043 50.9953 23.9336 50.7192 27 45L28 45C31.0664 50.7192 34.957 50.9953 41 51L32 37L35 36C37.368 41.0055 48.4365 52.0871 47.2701 57.4707C46.6276 60.4357 41.4841 61.8768 39 62.4815C30.0294 64.665 20.6536 61.6217 14.4676 54.8264C4.18138 43.5269 12.3774 32.3873 6 21L4 21C-6.7754 39.9563 3.41487 66.9015 26 70.6744C34.4221 72.0813 56.1112 70.5436 57.5486 58.9853C58.3298 52.7037 49.1758 43.0884 45.9468 38C42.3084 32.2666 38.6464 24.4604 32 22L28 30L19 16C34.3811 11.6131 51.6514 12.008 57.3727 31C59.6709 38.6289 56.8823 45.649 61 53L63 53C65.5657 46.1166 66.6275 39.3674 65.8264 32C63.8786 14.0867 45.204 1.90942 28 4.75463C22.3873 5.68288 11.3748 8.52999 9.73688 15.0401C8.24551 20.9679 18.9083 33.2502 23 37z"/>
<path style="fill:#ffffff; stroke:none;" d="M65 5C66.0004 8.0359 66.8628 8.49434 70 8L65 5z"/>
<path style="fill:#EA6400; stroke:none;" d="M83 24L71 55L78 55C82.7755 41.4084 93.4518 54.7492 101 55C99.3727 43.9813 94.3941 26.857 83 24M103.782 25.0424C101.047 27.2744 104.768 31.0243 107.393 28.9576C110.212 26.7378 106.364 22.9351 103.782 25.0424M129 46L128 46L124 50L124 51C130.634 56.3138 151.137 59.5824 148.562 45.0147C147.042 36.4131 137.869 39.5403 133.752 34.341C130.424 30.1394 139.22 30.7109 140.975 31.3117C142.669 31.8913 144.276 32.5082 146 33C150.175 22.806 132.47 21.8737 127.742 28.2245C118.636 40.4576 137.98 39.7521 141.079 45.4105C144.881 52.3551 130.827 47.3926 129 46M211 27L211 33L208 33L208 38L211 38C211 47.2842 209.612 57.1878 222 55L221 50L218 51L217 38L221 38L221 33L217 33L217 27L211 27z"/>
<path style="fill:#ffffff; stroke:none;" d="M86 31L82 44L91 44L86 31z"/>
<path style="fill:#EA6400; stroke:none;" d="M119 35L112 33L113 55L118 55C118 48.0495 116.232 39.3692 125 38L125 32L119 35M158 35L152 33L152 55L157 55C157 51.9956 155.716 35.6233 162.687 39.037C166.755 41.0297 165 51.2928 165 55L170 55C170 51.9956 168.716 35.6233 175.687 39.037C179.755 41.0297 178 51.2928 178 55L184 55C184 49.3438 185.388 41.2851 182.566 36.1481C179.689 30.9105 161.941 31.5765 158 35M187 36L187 37L189 40C194.457 37.7926 198.645 36.4563 201 43C193.126 39.2106 179.238 46.7366 189.228 53.9907C193.731 57.2598 200.791 54.8982 206 55C206 42.1136 204.301 23.8378 187 36M103 33L103 55L108 55L108 33L103 33z"/>
<path style="fill:#ffffff; stroke:none;" d="M194.336 46.0432C190.367 48.5573 195.356 52.8148 198.664 50.7778C202.626 48.3376 197.647 43.9462 194.336 46.0432M0 47L0 71L25 71L25 70C11.8335 66.8435 6.91068 57.2711 0 47z"/>
</svg>
