<?xml version="1.0" encoding="UTF-8"?>
<!DOCTYPE svg PUBLIC "-//W3C//DTD SVG 1.1//EN" "http://www.w3.org/Graphics/SVG/1.1/DTD/svg11.dtd">
<svg xmlns="http://www.w3.org/2000/svg" version="1.1" width="200px" height="137px" style="shape-rendering:geometricPrecision; text-rendering:geometricPrecision; image-rendering:optimizeQuality; fill-rule:evenodd; clip-rule:evenodd" xmlns:xlink="http://www.w3.org/1999/xlink">
<g><path style="opacity:0.959" fill="#d03238" d="M 100.5,6.5 C 107.677,5.18063 115.01,5.18063 122.5,6.5C 118.808,12.5638 115.141,18.5638 111.5,24.5C 108.321,18.1303 104.654,12.1303 100.5,6.5 Z"/></g>
<g><path style="opacity:0.973" fill="#1f1d1d" d="M 100.5,6.5 C 104.654,12.1303 108.321,18.1303 111.5,24.5C 111.5,50.1667 111.5,75.8333 111.5,101.5C 104.5,101.5 97.5,101.5 90.5,101.5C 90.824,75.7886 90.4906,50.122 89.5,24.5C 92.6902,18.1024 96.3569,12.1024 100.5,6.5 Z"/></g>
<g><path style="opacity:0.114" fill="#a00f16" d="M 32.5,10.5 C 33.8333,11.1667 33.8333,11.1667 32.5,10.5 Z"/></g>
<g><path style="opacity:0.02" fill="#c9121b" d="M 34.5,11.5 C 35.8333,12.1667 35.8333,12.1667 34.5,11.5 Z"/></g>
<g><path style="opacity:0.024" fill="#940f16" d="M 37.5,12.5 C 38.8333,13.1667 38.8333,13.1667 37.5,12.5 Z"/></g>
<g><path style="opacity:0.075" fill="#971117" d="M 40.5,13.5 C 41.8333,14.1667 41.8333,14.1667 40.5,13.5 Z"/></g>
<g><path style="opacity:0.086" fill="#7e0f14" d="M 43.5,14.5 C 44.8333,15.1667 44.8333,15.1667 43.5,14.5 Z"/></g>
<g><path style="opacity:0.184" fill="#620d11" d="M 47.5,16.5 C 48.8333,17.1667 48.8333,17.1667 47.5,16.5 Z"/></g>
<g><path style="opacity:0.987" fill="#1f1d1d" d="M 22.5,94.5 C 10.8588,83.733 6.69217,70.3997 10,54.5C 14.0609,40.1052 23.2276,30.6052 37.5,26C 49.914,22.7239 62.2473,23.0573 74.5,27C 75.3081,27.3076 75.9747,27.8076 76.5,28.5C 74.8455,34.1177 73.3455,39.7844 72,45.5C 60.1551,39.8593 48.6551,40.3593 37.5,47C 30.6207,56.2965 29.7873,66.1299 35,76.5C 40.858,83.9519 48.358,86.2852 57.5,83.5C 54.0862,74.26 51.0862,64.9267 48.5,55.5C 58.5,55.5 68.5,55.5 78.5,55.5C 78.8044,61.0074 78.8044,66.674 78.5,72.5C 90.5,72.8333 90.5,73.1667 78.5,73.5C 78.5,81.8333 78.5,90.1667 78.5,98.5C 74.8732,99.4293 71.2066,100.263 67.5,101C 68.8882,101.889 68.7215,102.389 67,102.5C 58.8891,102.418 50.7224,102.252 42.5,102C 35.1497,101.163 28.483,98.6632 22.5,94.5 Z"/></g>
<g><path style="opacity:0.004" fill="#f3393f" d="M 129.5,24.5 C 130.833,25.1667 130.833,25.1667 129.5,24.5 Z"/></g>
<g><path style="opacity:0.984" fill="#1f1d1d" d="M 155.5,44.5 C 147.448,47.4658 143.448,53.7992 143.5,63.5C 143.828,70.1535 146.328,75.8202 151,80.5C 151.869,75.4919 152.536,75.8252 153,81.5C 158.461,84.4119 164.294,85.2452 170.5,84C 166.668,74.6698 163.334,65.1698 160.5,55.5C 170.5,55.5 180.5,55.5 190.5,55.5C 190.5,61.1667 190.5,66.8333 190.5,72.5C 201.167,72.8333 201.167,73.1667 190.5,73.5C 191.118,82.27 190.452,90.77 188.5,99C 174.452,103.126 160.119,103.46 145.5,100C 141.528,98.6806 137.861,96.8472 134.5,94.5C 121.591,81.5183 118.091,66.185 124,48.5C 129.96,35.2636 140.127,27.4302 154.5,25C 165.321,23.0166 175.988,23.6833 186.5,27C 187.428,27.3879 188.095,28.0546 188.5,29C 187.078,34.522 185.578,40.022 184,45.5C 178.251,43.1879 172.251,41.8546 166,41.5C 165.05,42.0223 164.216,42.689 163.5,43.5C 160.516,42.0353 157.849,42.3686 155.5,44.5 Z"/></g>
<g><path style="opacity:0.016" fill="#f33a42" d="M 129.5,25.5 C 128.833,26.1667 128.833,26.1667 129.5,25.5 Z"/></g>
<g><path style="opacity:0.165" fill="#f33a41" d="M 127.5,27.5 C 128.833,28.1667 128.833,28.1667 127.5,27.5 Z"/></g>
<g><path style="opacity:0.012" fill="#fb3f46" d="M 126.5,29.5 C 127.833,30.1667 127.833,30.1667 126.5,29.5 Z"/></g>
<g><path style="opacity:0.118" fill="#f33a42" d="M 124.5,32.5 C 125.833,33.1667 125.833,33.1667 124.5,32.5 Z"/></g>
<g><path style="opacity:0.039" fill="#e4373f" d="M 123.5,34.5 C 124.833,35.1667 124.833,35.1667 123.5,34.5 Z"/></g>
<g><path style="opacity:0.004" fill="#fd3f45" d="M 122.5,36.5 C 123.833,37.1667 123.833,37.1667 122.5,36.5 Z"/></g>
<g><path style="opacity:0.024" fill="#e2383e" d="M 122.5,37.5 C 121.833,38.1667 121.833,38.1667 122.5,37.5 Z"/></g>
<g><path style="opacity:0.02" fill="#fe3e46" d="M 120.5,39.5 C 121.833,40.1667 121.833,40.1667 120.5,39.5 Z"/></g>
<g><path style="opacity:0.016" fill="#201e1e" d="M 75.5,43.5 C 75.8966,42.475 76.5632,42.3083 77.5,43C 76.9056,43.4643 76.2389,43.631 75.5,43.5 Z"/></g>
<g><path style="opacity:0.012" fill="#201f1f" d="M 187.5,43.5 C 187.897,42.475 188.563,42.3083 189.5,43C 188.906,43.4643 188.239,43.631 187.5,43.5 Z"/></g>
<g><path style="opacity:0.039" fill="#21201f" d="M 80.5,43.5 C 81.8333,44.1667 81.8333,44.1667 80.5,43.5 Z"/></g>
<g><path style="opacity:0.055" fill="#201f1e" d="M 158.5,43.5 C 159.833,44.1667 159.833,44.1667 158.5,43.5 Z"/></g>
<g><path style="opacity:0.024" fill="#211f1f" d="M 191.5,44.5 C 191.897,43.475 192.563,43.3083 193.5,44C 192.906,44.4643 192.239,44.631 191.5,44.5 Z"/></g>
<g><path style="opacity:0.047" fill="#1d1d1c" d="M 83.5,44.5 C 84.8333,45.1667 84.8333,45.1667 83.5,44.5 Z"/></g>
<g><path style="opacity:0.094" fill="#1f1e1d" d="M 155.5,44.5 C 156.833,45.1667 156.833,45.1667 155.5,44.5 Z"/></g>
<g><path style="opacity:0.02" fill="#262423" d="M 195.5,44.5 C 196.833,45.1667 196.833,45.1667 195.5,44.5 Z"/></g>
<g><path style="opacity:0.037" fill="#21201f" d="M 83.5,46.5 C 84.525,46.8966 84.6917,47.5632 84,48.5C 83.5357,47.9056 83.369,47.2389 83.5,46.5 Z"/></g>
<g><path style="opacity:0.106" fill="#201f1e" d="M 195.5,46.5 C 196.525,46.8966 196.692,47.5632 196,48.5C 195.536,47.9056 195.369,47.2389 195.5,46.5 Z"/></g>
<g><path style="opacity:0.031" fill="#211e1e" d="M 82.5,50.5 C 83.525,50.8966 83.6917,51.5632 83,52.5C 82.5357,51.9056 82.369,51.2389 82.5,50.5 Z"/></g>
<g><path style="opacity:0.004" fill="#201e1e" d="M 194.5,50.5 C 195.525,50.8966 195.692,51.5632 195,52.5C 194.536,51.9056 194.369,51.2389 194.5,50.5 Z"/></g>
<g><path style="opacity:0.094" fill="#211e1e" d="M 193.5,54.5 C 194.525,54.8966 194.692,55.5632 194,56.5C 193.536,55.9056 193.369,55.2389 193.5,54.5 Z"/></g>
<g><path style="opacity:0.031" fill="#1f1d1d" d="M 81.5,54.5 C 82.525,54.8966 82.6917,55.5632 82,56.5C 81.5357,55.9056 81.369,55.2389 81.5,54.5 Z"/></g>
<g><path style="opacity:0.031" fill="#1e1c1c" d="M 80.5,58.5 C 81.525,58.8966 81.6917,59.5632 81,60.5C 80.5357,59.9056 80.369,59.2389 80.5,58.5 Z"/></g>
<g><path style="opacity:0.004" fill="#201f1f" d="M 192.5,60.5 C 192.369,59.7611 192.536,59.0944 193,58.5C 193.692,59.4368 193.525,60.1034 192.5,60.5 Z"/></g>
<g><path style="opacity:0.004" fill="#1e1c1b" d="M 192.5,60.5 C 191.833,61.1667 191.833,61.1667 192.5,60.5 Z"/></g>
<g><path style="opacity:0.024" fill="#22201f" d="M 47.5,61.5 C 48.8333,62.1667 48.8333,62.1667 47.5,61.5 Z"/></g>
<g><path style="opacity:0.086" fill="#21201f" d="M 159.5,61.5 C 160.833,62.1667 160.833,62.1667 159.5,61.5 Z"/></g>
<g><path style="opacity:0.094" fill="#201f1e" d="M 47.5,62.5 C 46.8333,63.1667 46.8333,63.1667 47.5,62.5 Z"/></g>
<g><path style="opacity:0.027" fill="#1e1d1c" d="M 159.5,62.5 C 158.833,63.1667 158.833,63.1667 159.5,62.5 Z"/></g>
<g><path style="opacity:0.027" fill="#1f1d1c" d="M 46.5,63.5 C 45.8333,64.1667 45.8333,64.1667 46.5,63.5 Z"/></g>
<g><path style="opacity:0.004" fill="#20201f" d="M 158.5,63.5 C 157.833,64.1667 157.833,64.1667 158.5,63.5 Z"/></g>
<g><path style="opacity:0.024" fill="#d0d1cf" d="M 2.5,65.5 C 1.83333,64.1667 1.83333,64.1667 2.5,65.5 Z"/></g>
<g><path style="opacity:0.047" fill="#272423" d="M 45.5,64.5 C 44.8333,65.1667 44.8333,65.1667 45.5,64.5 Z"/></g>
<g><path style="opacity:0.012" fill="#23201f" d="M 157.5,64.5 C 156.833,65.1667 156.833,65.1667 157.5,64.5 Z"/></g>
<g><path style="opacity:0.008" fill="#c4c5c4" d="M 2.5,65.5 C 3.83333,66.1667 3.83333,66.1667 2.5,65.5 Z"/></g>
<g><path style="opacity:0.071" fill="#232322" d="M 44.5,65.5 C 43.8333,66.1667 43.8333,66.1667 44.5,65.5 Z"/></g>
<g><path style="opacity:0.165" fill="#232221" d="M 156.5,65.5 C 155.833,66.1667 155.833,66.1667 156.5,65.5 Z"/></g>
<g><path style="opacity:0.094" fill="#d3d4d2" d="M 4.5,66.5 C 5.83333,67.1667 5.83333,67.1667 4.5,66.5 Z"/></g>
<g><path style="opacity:0.008" fill="#1e1d1c" d="M 42.5,67.5 C 43.8333,68.1667 43.8333,68.1667 42.5,67.5 Z"/></g>
<g><path style="opacity:0.012" fill="#212120" d="M 41.5,69.5 C 42.8333,70.1667 42.8333,70.1667 41.5,69.5 Z"/></g>
<g><path style="opacity:0.004" fill="#191a19" d="M 153.5,69.5 C 154.833,70.1667 154.833,70.1667 153.5,69.5 Z"/></g>
<g><path style="opacity:0.016" fill="#201e1e" d="M 40.5,71.5 C 41.525,71.8966 41.6917,72.5632 41,73.5C 40.5357,72.9056 40.369,72.2389 40.5,71.5 Z"/></g>
<g><path style="opacity:0.004" fill="#1d1b1b" d="M 152.5,71.5 C 153.525,71.8966 153.692,72.5632 153,73.5C 152.536,72.9056 152.369,72.2389 152.5,71.5 Z"/></g>
<g><path style="opacity:0.165" fill="#1e1c1b" d="M 22.5,94.5 C 21.8333,95.1667 21.8333,95.1667 22.5,94.5 Z"/></g>
<g><path style="opacity:0.004" fill="#231f1f" d="M 134.5,94.5 C 134.631,95.2389 134.464,95.9056 134,96.5C 133.308,95.5632 133.475,94.8966 134.5,94.5 Z"/></g>
<g><path style="opacity:0.004" fill="#20201f" d="M 22.5,97.5 C 23.8333,98.1667 23.8333,98.1667 22.5,97.5 Z"/></g>
<g><path style="opacity:0.031" fill="#20201f" d="M 134.5,97.5 C 135.833,98.1667 135.833,98.1667 134.5,97.5 Z"/></g>
<g><path style="opacity:0.004" fill="#232221" d="M 23.5,99.5 C 24.8333,100.167 24.8333,100.167 23.5,99.5 Z"/></g>
<g><path style="opacity:0.027" fill="#242322" d="M 135.5,99.5 C 136.833,100.167 136.833,100.167 135.5,99.5 Z"/></g>
<g><path style="opacity:0.047" fill="#222120" d="M 25.5,102.5 C 26.8333,103.167 26.8333,103.167 25.5,102.5 Z"/></g>
<g><path style="opacity:0.2" fill="#222120" d="M 137.5,102.5 C 138.833,103.167 138.833,103.167 137.5,102.5 Z"/></g>
<g><path style="opacity:0.004" fill="#191918" d="M 141.5,107.5 C 140.833,106.167 140.833,106.167 141.5,107.5 Z"/></g>
<g><path style="opacity:0.905" fill="#1d1c1c" d="M 67.5,124.5 C 62.7289,131.44 57.0623,132.94 50.5,129C 49.8366,127.482 48.8366,126.315 47.5,125.5C 46.0411,120.653 46.5411,115.987 49,111.5C 56.2798,105.491 62.2798,106.491 67,114.5C 67.4983,117.817 67.665,121.15 67.5,124.5 Z M 54.5,111.5 C 59.0927,110.418 62.0927,112.085 63.5,116.5C 58.3183,117.776 58.3183,118.443 63.5,118.5C 63.7956,125.042 60.7956,127.875 54.5,127C 50.5236,121.766 50.5236,116.599 54.5,111.5 Z"/></g>
<g><path style="opacity:0.879" fill="#1e1c1c" d="M 67.5,124.5 C 68.3764,124.631 69.0431,124.298 69.5,123.5C 67.1821,115.311 70.1821,110.144 78.5,108C 80.8991,107.289 83.2324,107.456 85.5,108.5C 86.8333,109.833 86.8333,111.167 85.5,112.5C 74.0464,110.452 70.5464,114.785 75,125.5C 80.5612,129.187 83.3946,127.854 83.5,121.5C 82.1667,121.5 80.8333,121.5 79.5,121.5C 79.5,120.5 79.5,119.5 79.5,118.5C 82.1667,118.5 84.8333,118.5 87.5,118.5C 87.5,120.5 87.5,122.5 87.5,124.5C 88.5,124.5 89.5,124.5 90.5,124.5C 90.5,118.833 90.5,113.167 90.5,107.5C 91.8333,107.5 93.1667,107.5 94.5,107.5C 94.6972,115.274 94.6972,122.941 94.5,130.5C 93.1667,130.5 91.8333,130.5 90.5,130.5C 90.5,128.833 90.5,127.167 90.5,125.5C 89.5,125.5 88.5,125.5 87.5,125.5C 87.7135,127.144 87.3802,128.644 86.5,130C 82.3949,131.536 78.3949,131.536 74.5,130C 72.5309,127.511 70.1975,125.678 67.5,124.5 Z"/></g>
<g><path style="opacity:0.894" fill="#1e1c1c" d="M 154.5,127.5 C 157.706,127.453 160.873,127.119 164,126.5C 164.667,125.167 164.667,123.833 164,122.5C 159.846,120.846 156.346,118.346 153.5,115C 155.384,109.058 159.384,106.724 165.5,108C 167.497,109.153 167.83,110.653 166.5,112.5C 164.253,111.626 161.92,111.292 159.5,111.5C 159.343,112.873 159.51,114.207 160,115.5C 162.912,116.74 165.579,118.406 168,120.5C 168.49,121.793 168.657,123.127 168.5,124.5C 172.449,124.693 172.449,125.193 168.5,126C 168.833,126.333 169.167,126.667 169.5,127C 167.43,127.948 165.93,129.448 165,131.5C 161.924,130.712 158.758,130.212 155.5,130C 154.748,129.329 154.414,128.496 154.5,127.5 Z"/></g>
<g><path style="opacity:0.892" fill="#1f1d1d" d="M 46.5,125.5 C 46.8333,125.5 47.1667,125.5 47.5,125.5C 47.5,129.167 47.5,132.833 47.5,136.5C 47.1667,136.5 46.8333,136.5 46.5,136.5C 46.5,134.5 46.5,132.5 46.5,130.5C 42.5,130.5 38.5,130.5 34.5,130.5C 34.342,122.666 34.342,114.999 34.5,107.5C 35.8333,107.5 37.1667,107.5 38.5,107.5C 38.5,114.167 38.5,120.833 38.5,127.5C 41.6981,128.036 44.3647,127.369 46.5,125.5 Z"/></g>
<g><path style="opacity:0.924" fill="#1d1c1c" d="M 141.5,107.5 C 144.697,107.665 148.03,107.831 151.5,108C 152.973,108.71 153.64,109.876 153.5,111.5C 141.47,110.07 137.804,114.904 142.5,126C 146.15,127.211 149.817,127.711 153.5,127.5C 153.5,128.5 153.5,129.5 153.5,130.5C 149.685,131.105 146.018,131.105 142.5,130.5C 142.5,132.5 142.5,134.5 142.5,136.5C 142.167,136.5 141.833,136.5 141.5,136.5C 142.609,129.957 139.942,126.29 133.5,125.5C 133.5,127.167 133.5,128.833 133.5,130.5C 132.167,130.5 130.833,130.5 129.5,130.5C 129.5,128.833 129.5,127.167 129.5,125.5C 126.813,125.336 124.146,125.503 121.5,126C 122.167,126.333 122.833,126.667 123.5,127C 122.027,127.71 121.36,128.876 121.5,130.5C 120.167,130.5 118.833,130.5 117.5,130.5C 117.034,128.799 117.034,127.299 117.5,126C 116.833,125.667 116.167,125.333 115.5,125C 117.291,122.894 117.958,120.394 117.5,117.5C 113.818,117.335 110.152,117.501 106.5,118C 109.535,119.701 111.868,122.035 113.5,125C 112.584,125.278 111.918,125.778 111.5,126.5C 110.698,127.952 110.198,129.618 110,131.5C 109.026,129.122 108.359,129.456 108,132.5C 106.951,130.893 105.451,130.227 103.5,130.5C 103.5,132.5 103.5,134.5 103.5,136.5C 103.167,136.5 102.833,136.5 102.5,136.5C 102.5,134.5 102.5,132.5 102.5,130.5C 99.0504,131.244 97.3838,129.91 97.5,126.5C 98.9305,126.421 100.264,126.754 101.5,127.5C 102.298,127.043 102.631,126.376 102.5,125.5C 104.419,128.084 106.086,127.75 107.5,124.5C 107.081,123.328 106.415,122.328 105.5,121.5C 99.6638,120.514 97.1638,117.181 98,111.5C 101.654,107.196 105.821,106.529 110.5,109.5C 110,110.5 109.5,111.5 109,112.5C 106.936,111.409 104.769,111.242 102.5,112C 101.167,113.333 101.167,114.667 102.5,116C 107.489,116.499 112.489,116.666 117.5,116.5C 117.5,114.833 117.5,113.167 117.5,111.5C 115.5,111.5 113.5,111.5 111.5,111.5C 111.5,110.167 111.5,108.833 111.5,107.5C 117.167,107.5 122.833,107.5 128.5,107.5C 128.5,108.833 128.5,110.167 128.5,111.5C 126.167,111.5 123.833,111.5 121.5,111.5C 121.5,115.833 121.5,120.167 121.5,124.5C 124.167,124.5 126.833,124.5 129.5,124.5C 129.5,118.833 129.5,113.167 129.5,107.5C 130.833,107.5 132.167,107.5 133.5,107.5C 133.5,113.167 133.5,118.833 133.5,124.5C 134.5,124.5 135.5,124.5 136.5,124.5C 135.833,122.181 135.666,119.847 136,117.5C 137.255,113.771 139.088,110.438 141.5,107.5 Z"/></g>
<g><path style="opacity:0.004" fill="#211f1e" d="M 148.5,112.5 C 149.833,113.167 149.833,113.167 148.5,112.5 Z"/></g>
<g><path style="opacity:0.063" fill="#212120" d="M 39.5,113.5 C 40.8333,114.167 40.8333,114.167 39.5,113.5 Z"/></g>
<g><path style="opacity:0.098" fill="#222120" d="M 85.5,113.5 C 86.8333,114.167 86.8333,114.167 85.5,113.5 Z"/></g>
<g><path style="opacity:0.016" fill="#21201f" d="M 151.5,113.5 C 152.833,114.167 152.833,114.167 151.5,113.5 Z"/></g>
<g><path style="opacity:0.129" fill="#21201f" d="M 197.5,113.5 C 198.833,114.167 198.833,114.167 197.5,113.5 Z"/></g>
<g><path style="opacity:0.024" fill="#222221" d="M 41.5,114.5 C 42.8333,115.167 42.8333,115.167 41.5,114.5 Z"/></g>
<g><path style="opacity:0.02" fill="#1f1d1d" d="M 81.5,115.5 C 81.8966,114.475 82.5632,114.308 83.5,115C 82.9056,115.464 82.2389,115.631 81.5,115.5 Z"/></g>
<g><path style="opacity:0.041" fill="#201e1e" d="M 193.5,115.5 C 193.897,114.475 194.563,114.308 195.5,115C 194.906,115.464 194.239,115.631 193.5,115.5 Z"/></g>
<g><path style="opacity:0.118" fill="#201e1e" d="M 44.5,116.5 C 44.8966,115.475 45.5632,115.308 46.5,116C 45.9056,116.464 45.2389,116.631 44.5,116.5 Z"/></g>
<g><path style="opacity:0.004" fill="#1f1e1e" d="M 77.5,116.5 C 77.8966,115.475 78.5632,115.308 79.5,116C 78.9056,116.464 78.2389,116.631 77.5,116.5 Z"/></g>
<g><path style="opacity:0.065" fill="#222020" d="M 189.5,116.5 C 189.897,115.475 190.563,115.308 191.5,116C 190.906,116.464 190.239,116.631 189.5,116.5 Z"/></g>
<g><path style="opacity:0.071" fill="#211e1e" d="M 182.5,117.5 C 183.251,116.427 184.251,116.26 185.5,117C 184.552,117.483 183.552,117.649 182.5,117.5 Z"/></g>
<g><path style="opacity:0.004" fill="#21201f" d="M 171.5,118.5 C 172.601,117.402 173.934,117.235 175.5,118C 174.207,118.49 172.873,118.657 171.5,118.5 Z"/></g>
<g><path style="opacity:0.094" fill="#212020" d="M 46.5,125.5 C 45.7611,125.631 45.0944,125.464 44.5,125C 45.4368,124.308 46.1034,124.475 46.5,125.5 Z"/></g>
<g><path style="opacity:0.094" fill="#212020" d="M 102.5,125.5 C 101.761,125.631 101.094,125.464 100.5,125C 101.437,124.308 102.103,124.475 102.5,125.5 Z"/></g>
<g><path style="opacity:0.124" fill="#211f1f" d="M 153.5,125.5 C 154.251,124.427 155.251,124.26 156.5,125C 155.552,125.483 154.552,125.649 153.5,125.5 Z"/></g>
<g><path style="opacity:0.088" fill="#201f1f" d="M 157.5,125.5 C 158.251,124.427 159.251,124.26 160.5,125C 159.552,125.483 158.552,125.649 157.5,125.5 Z"/></g>
<g><path style="opacity:0.076" fill="#21201f" d="M 172.5,125.5 C 172.897,124.475 173.563,124.308 174.5,125C 173.906,125.464 173.239,125.631 172.5,125.5 Z"/></g>
<g><path style="opacity:0.004" fill="#20201f" d="M 175.5,125.5 C 176.833,126.167 176.833,126.167 175.5,125.5 Z"/></g>
<g><path style="opacity:0.016" fill="#1d1d1c" d="M 111.5,126.5 C 112.833,127.167 112.833,127.167 111.5,126.5 Z"/></g>
<g><path style="opacity:0.012" fill="#211f1e" d="M 135.5,126.5 C 136.833,127.167 136.833,127.167 135.5,126.5 Z"/></g>
<g><path style="opacity:0.012" fill="#201f1e" d="M 154.5,127.5 C 153.833,126.167 153.833,126.167 154.5,127.5 Z"/></g>
<g><path style="opacity:0.015" fill="#181717" d="M 128.5,136.5 C 128.167,136.5 127.833,136.5 127.5,136.5C 127.833,123.167 128.167,123.167 128.5,136.5 Z"/></g>
<g><path style="opacity:0.02" fill="#201f1e" d="M 81.5,131.5 C 82.8333,132.167 82.8333,132.167 81.5,131.5 Z"/></g>
<g><path style="opacity:0.008" fill="#1e1f1e" d="M 148.5,131.5 C 149.833,132.167 149.833,132.167 148.5,131.5 Z"/></g>
<g><path style="opacity:0.02" fill="#232322" d="M 168.5,132.5 C 167.833,131.167 167.833,131.167 168.5,132.5 Z"/></g>
<g><path style="opacity:0.008" fill="#21201f" d="M 111.5,132.5 C 112.833,133.167 112.833,133.167 111.5,132.5 Z"/></g>
<g><path style="opacity:0.169" fill="#222120" d="M 166.5,133.5 C 165.833,132.167 165.833,132.167 166.5,133.5 Z"/></g>
<g><path style="opacity:0.125" fill="#211f1e" d="M 168.5,132.5 C 169.833,133.167 169.833,133.167 168.5,132.5 Z"/></g>
<g><path style="opacity:0.149" fill="#222020" d="M 75.5,132.5 C 76.525,132.897 76.6917,133.563 76,134.5C 75.5357,133.906 75.369,133.239 75.5,132.5 Z"/></g>
<g><path style="opacity:0.012" fill="#21201f" d="M 113.5,133.5 C 114.833,134.167 114.833,134.167 113.5,133.5 Z"/></g>
<g><path style="opacity:0.039" fill="#272625" d="M 166.5,133.5 C 167.167,133.5 167.5,133.833 167.5,134.5C 167.167,134.167 166.833,133.833 166.5,133.5 Z"/></g>
<g><path style="opacity:0.078" fill="#1f1e1d" d="M 170.5,133.5 C 171.833,134.167 171.833,134.167 170.5,133.5 Z"/></g>
<g><path style="opacity:0.004" fill="#211f1e" d="M 89.5,134.5 C 90.8333,135.167 90.8333,135.167 89.5,134.5 Z"/></g>
<g><path style="opacity:0.004" fill="#211f1e" d="M 95.5,135.5 C 94.8333,134.167 94.8333,134.167 95.5,135.5 Z"/></g>
<g><path style="opacity:0.2" fill="#20201f" d="M 110.5,134.5 C 111.833,135.167 111.833,135.167 110.5,134.5 Z"/></g>
<g><path style="opacity:0.094" fill="#242221" d="M 115.5,134.5 C 116.833,135.167 116.833,135.167 115.5,134.5 Z"/></g>
<g><path style="opacity:0.018" fill="#211f1f" d="M 146.5,136.5 C 146.167,136.5 145.833,136.5 145.5,136.5C 145.833,132.5 146.167,132.5 146.5,136.5 Z"/></g>
<g><path style="opacity:0.016" fill="#1f1d1c" d="M 167.5,134.5 C 168.833,135.167 168.833,135.167 167.5,134.5 Z"/></g>
<g><path style="opacity:0.071" fill="#201e1d" d="M 172.5,134.5 C 173.833,135.167 173.833,135.167 172.5,134.5 Z"/></g>
<g><path style="opacity:0.098" fill="#222120" d="M 76.5,136.5 C 75.8333,135.167 75.8333,135.167 76.5,136.5 Z"/></g>
<g><path style="opacity:0.004" fill="#1f1c1c" d="M 79.5,136.5 C 79.1667,136.5 78.8333,136.5 78.5,136.5C 78.8333,133.833 79.1667,133.833 79.5,136.5 Z"/></g>
<g><path style="opacity:0.114" fill="#21201f" d="M 95.5,135.5 C 96.1667,135.5 96.5,135.833 96.5,136.5C 96.1667,136.167 95.8333,135.833 95.5,135.5 Z"/></g>
<g><path style="opacity:0.02" fill="#201f1e" d="M 113.5,136.5 C 112.833,135.167 112.833,135.167 113.5,136.5 Z"/></g>
<g><path style="opacity:0.025" fill="#201e1d" d="M 169.5,136.5 C 170.167,135.167 170.833,135.167 171.5,136.5C 170.833,136.5 170.167,136.5 169.5,136.5 Z"/></g>
<g><path style="opacity:0.016" fill="#232322" d="M 175.5,136.5 C 174.833,135.167 174.833,135.167 175.5,136.5 Z"/></g>
</svg>
