<svg width="99" height="24" viewBox="0 0 99 24" fill="none" xmlns="http://www.w3.org/2000/svg">
<path fill-rule="evenodd" clip-rule="evenodd" d="M10.1373 12.0541C10.0518 12.1338 10.3562 12.2374 9.87423 12.127C9.09279 12.104 7.65375 12.8182 6.97311 12.8182C6.95391 11.4838 7.19871 9.4208 7.42815 8.18048C7.69983 6.71456 8.47647 5.79104 9.78207 5.4512C9.87135 5.36192 9.82337 5.35616 9.98561 5.28416C10.0672 5.24864 10.0691 5.2592 10.1603 5.25152C11.0425 5.17664 11.8461 5.50976 12.4873 6.03008C13.168 6.58112 13.6336 7.472 13.6288 8.432C13.6202 10.0237 12.7101 11.0816 11.488 11.6182C11.1837 11.7517 10.4176 12.0858 10.1363 12.0541H10.1373ZM2.29311 23.5405C2.24223 23.2458 2.66463 21.9882 2.79519 21.6704C3.47583 20.0029 4.59999 18.6656 6.10335 17.6614C8.92383 15.7779 10.9408 16.664 13.6816 15.4659C19.2976 13.0093 19.456 6.41312 16.0019 2.888C12.3818 -0.806078 5.6944 0.00896313 3.35968 5.21696C2.40448 7.3472 2.3248 11.2275 2.28736 13.8819C2.26048 15.7664 2.19135 22.0026 2.29311 23.5414V23.5405Z" fill="#ffffff"/>
<path fill-rule="evenodd" clip-rule="evenodd" d="M4.85345 19.7043L4.41571 20.2842C5.73283 21.5312 8.74723 22.3232 10.8189 22.1974C13.3101 22.0467 15.4384 20.9869 16.8026 19.7811C20.1693 16.808 21.256 12.031 19.313 7.86368C19.1651 7.54592 19.1594 7.58144 19.0058 7.49312C19.0163 7.9184 18.9856 9.05216 19.0547 9.37952C19.4589 11.2813 19.721 12.224 19.2122 14.4474C18.7475 16.4797 17.4323 18.1491 16.2707 19.1763C13.5453 21.5869 9.44035 22.1408 6.09475 20.4051C5.70595 20.2035 5.15489 19.7965 4.85345 19.7043Z" fill="#ffffff"/>
<path fill-rule="evenodd" clip-rule="evenodd" d="M1.21602 7.98657C0.608338 8.71041 0.24258 11.2554 0.28194 12.5379C0.32322 13.8819 0.841619 16.1514 1.49346 16.9357C1.75074 13.8023 0.481614 13.5651 1.34369 9.93633C1.48193 9.35169 1.93313 8.43393 1.84673 7.85217C1.75937 7.33473 2.00225 7.37889 1.76321 7.05249L1.40417 7.80417C1.29953 7.97217 1.3821 7.87233 1.21602 7.98657Z" fill="#ffffff"/>
<path fill-rule="evenodd" clip-rule="evenodd" d="M9.78308 5.4512C11.1405 5.312 11.6724 5.51168 12.4989 6.16832C13.1392 6.67808 13.5204 7.66112 13.504 8.58272C13.4848 9.704 12.9808 10.4672 12.4202 10.9242C11.5024 11.672 10.3159 11.8198 10.1373 12.0531C10.0212 12.0435 9.87428 11.9686 9.87428 12.1261C10.3552 12.2365 10.0519 12.1328 10.1373 12.0531C10.4186 12.0848 11.1847 11.7507 11.489 11.6173C12.7101 11.0816 13.6212 10.0237 13.6298 8.43104C13.6346 7.47104 13.169 6.58016 12.4884 6.02912C11.8471 5.50976 11.0445 5.17568 10.1613 5.25056C10.0711 5.25824 10.0682 5.24672 9.98661 5.2832C9.82437 5.3552 9.87236 5.36096 9.78308 5.45024V5.4512Z" fill="#ffffff"/>
<path d="M24.804 15.52V7.11878H27.6427C28.3017 7.11878 28.8405 7.23774 29.2589 7.47567C29.6801 7.71086 29.9918 8.02946 30.1942 8.43147C30.3966 8.83348 30.4978 9.28199 30.4978 9.77698C30.4978 10.272 30.3966 10.7218 30.1942 11.1266C29.9946 11.5313 29.6855 11.854 29.2671 12.0947C28.8487 12.3326 28.3127 12.4516 27.6591 12.4516H25.6244V11.5491H27.6262C28.0775 11.5491 28.4398 11.4712 28.7133 11.3153C28.9868 11.1594 29.1851 10.9488 29.3081 10.6836C29.4339 10.4156 29.4968 10.1134 29.4968 9.77698C29.4968 9.4406 29.4339 9.13978 29.3081 8.87451C29.1851 8.60923 28.9854 8.40139 28.7092 8.25098C28.433 8.09783 28.0665 8.02126 27.6098 8.02126H25.8213V15.52H24.804ZM32.0053 15.52V9.21909H32.9406V10.1708H33.0062C33.1211 9.85902 33.3289 9.60606 33.6298 9.41189C33.9306 9.21772 34.2697 9.12064 34.6471 9.12064C34.7182 9.12064 34.8071 9.122 34.9137 9.12474C35.0204 9.12747 35.1011 9.13157 35.1558 9.13704V10.1216C35.1229 10.1134 35.0477 10.1011 34.9301 10.0846C34.8153 10.0655 34.6936 10.0559 34.565 10.0559C34.2588 10.0559 33.9853 10.1202 33.7446 10.2487C33.5067 10.3745 33.318 10.5496 33.1785 10.7738C33.0418 10.9953 32.9734 11.2483 32.9734 11.5327V15.52H32.0053ZM38.6713 15.6513C38.1025 15.6513 37.6034 15.5159 37.174 15.2452C36.7474 14.9744 36.4138 14.5957 36.1731 14.1089C35.9352 13.6221 35.8162 13.0532 35.8162 12.4024C35.8162 11.746 35.9352 11.1731 36.1731 10.6836C36.4138 10.194 36.7474 9.8139 37.174 9.54316C37.6034 9.27242 38.1025 9.13704 38.6713 9.13704C39.2401 9.13704 39.7379 9.27242 40.1645 9.54316C40.5939 9.8139 40.9275 10.194 41.1654 10.6836C41.4061 11.1731 41.5264 11.746 41.5264 12.4024C41.5264 13.0532 41.4061 13.6221 41.1654 14.1089C40.9275 14.5957 40.5939 14.9744 40.1645 15.2452C39.7379 15.5159 39.2401 15.6513 38.6713 15.6513ZM38.6713 14.7816C39.1034 14.7816 39.4589 14.6709 39.7379 14.4493C40.0168 14.2278 40.2233 13.9366 40.3573 13.5756C40.4913 13.2146 40.5583 12.8235 40.5583 12.4024C40.5583 11.9812 40.4913 11.5888 40.3573 11.225C40.2233 10.8613 40.0168 10.5673 39.7379 10.3431C39.4589 10.1188 39.1034 10.0067 38.6713 10.0067C38.2392 10.0067 37.8837 10.1188 37.6047 10.3431C37.3258 10.5673 37.1193 10.8613 36.9853 11.225C36.8513 11.5888 36.7843 11.9812 36.7843 12.4024C36.7843 12.8235 36.8513 13.2146 36.9853 13.5756C37.1193 13.9366 37.3258 14.2278 37.6047 14.4493C37.8837 14.6709 38.2392 14.7816 38.6713 14.7816ZM45.3835 15.6513C44.8584 15.6513 44.3948 15.5186 43.9928 15.2534C43.5908 14.9854 43.2763 14.608 43.0493 14.1212C42.8223 13.6316 42.7089 13.0532 42.7089 12.386C42.7089 11.7241 42.8223 11.1498 43.0493 10.663C43.2763 10.1763 43.5922 9.80023 43.9969 9.53495C44.4017 9.26968 44.8693 9.13704 45.3999 9.13704C45.8101 9.13704 46.1342 9.20541 46.3721 9.34215C46.6127 9.47616 46.796 9.6293 46.9218 9.80159C47.0503 9.97115 47.1501 10.1106 47.2212 10.22H47.3033V7.11878H48.2714V15.52H47.3361V14.5519H47.2212C47.1501 14.6668 47.0489 14.8117 46.9177 14.9867C46.7864 15.159 46.5991 15.3135 46.3557 15.4503C46.1123 15.5843 45.7882 15.6513 45.3835 15.6513ZM45.5147 14.7816C45.9031 14.7816 46.2312 14.6804 46.4993 14.4781C46.7673 14.2729 46.971 13.9899 47.1105 13.6289C47.2499 13.2652 47.3197 12.8454 47.3197 12.3695C47.3197 11.8992 47.2513 11.4876 47.1146 11.1348C46.9778 10.7793 46.7755 10.5031 46.5075 10.3062C46.2394 10.1065 45.9085 10.0067 45.5147 10.0067C45.1045 10.0067 44.7627 10.112 44.4892 10.3226C44.2185 10.5304 44.0147 10.8135 43.878 11.1717C43.744 11.5272 43.677 11.9265 43.677 12.3695C43.677 12.818 43.7453 13.2255 43.8821 13.592C44.0215 13.9557 44.2267 14.2456 44.4974 14.4616C44.7709 14.675 45.11 14.7816 45.5147 14.7816ZM54.1498 12.9438V9.21909H55.1179V15.52H54.1498V14.4534H54.0841C53.9365 14.7734 53.7067 15.0455 53.395 15.2698C53.0832 15.4913 52.6894 15.602 52.2136 15.602C51.8198 15.602 51.4697 15.5159 51.1634 15.3436C50.8571 15.1686 50.6165 14.906 50.4414 14.556C50.2664 14.2032 50.1789 13.7588 50.1789 13.2228V9.21909H51.147V13.1572C51.147 13.6166 51.2755 13.9831 51.5326 14.2565C51.7924 14.53 52.1233 14.6668 52.5253 14.6668C52.766 14.6668 53.0107 14.6052 53.2596 14.4822C53.5112 14.3591 53.7218 14.1704 53.8913 13.9161C54.0636 13.6617 54.1498 13.3377 54.1498 12.9438ZM59.4508 15.6513C58.8601 15.6513 58.3514 15.5118 57.9248 15.2329C57.4982 14.9539 57.17 14.5697 56.9403 14.0801C56.7105 13.5906 56.5957 13.0314 56.5957 12.4024C56.5957 11.7624 56.7133 11.1977 56.9485 10.7082C57.1864 10.2159 57.5173 9.83168 57.9412 9.55546C58.3678 9.27652 58.8656 9.13704 59.4344 9.13704C59.8774 9.13704 60.2767 9.21909 60.6322 9.38317C60.9877 9.54726 61.279 9.77698 61.506 10.0723C61.733 10.3677 61.8738 10.7123 61.9285 11.1061H60.9604C60.8865 10.8189 60.7225 10.5646 60.4681 10.3431C60.2165 10.1188 59.8774 10.0067 59.4508 10.0067C59.0734 10.0067 58.7425 10.1052 58.4581 10.3021C58.1764 10.4962 57.9562 10.7711 57.7976 11.1266C57.6417 11.4794 57.5638 11.8937 57.5638 12.3695C57.5638 12.8563 57.6404 13.2802 57.7935 13.6412C57.9494 14.0022 58.1682 14.2825 58.4499 14.4822C58.7343 14.6818 59.0679 14.7816 59.4508 14.7816C59.7024 14.7816 59.9307 14.7379 60.1359 14.6503C60.341 14.5628 60.5146 14.437 60.6568 14.2729C60.799 14.1089 60.9002 13.912 60.9604 13.6822H61.9285C61.8738 14.0542 61.7384 14.3892 61.5224 14.6873C61.3091 14.9826 61.026 15.2178 60.6732 15.3928C60.3232 15.5651 59.9157 15.6513 59.4508 15.6513ZM66.084 9.21909V10.0395H62.8187V9.21909H66.084ZM63.7704 7.70949H64.7385V13.7151C64.7385 13.9885 64.7781 14.1936 64.8574 14.3304C64.9395 14.4644 65.0434 14.5546 65.1692 14.6011C65.2977 14.6449 65.4331 14.6668 65.5753 14.6668C65.682 14.6668 65.7695 14.6613 65.8379 14.6503C65.9062 14.6367 65.9609 14.6257 66.0019 14.6175L66.1988 15.4872C66.1332 15.5118 66.0416 15.5364 65.924 15.561C65.8064 15.5884 65.6574 15.602 65.4769 15.602C65.2034 15.602 64.9354 15.5432 64.6728 15.4257C64.413 15.3081 64.197 15.1289 64.0247 14.8883C63.8551 14.6476 63.7704 14.3441 63.7704 13.9776V7.70949ZM70.9204 15.52V7.11878H73.7591C74.4182 7.11878 74.957 7.23774 75.3754 7.47567C75.7965 7.71086 76.1083 8.02946 76.3107 8.43147C76.513 8.83348 76.6142 9.28199 76.6142 9.77698C76.6142 10.272 76.513 10.7218 76.3107 11.1266C76.111 11.5313 75.802 11.854 75.3836 12.0947C74.9652 12.3326 74.4291 12.4516 73.7755 12.4516H71.7409V11.5491H73.7427C74.194 11.5491 74.5563 11.4712 74.8298 11.3153C75.1033 11.1594 75.3015 10.9488 75.4246 10.6836C75.5504 10.4156 75.6133 10.1134 75.6133 9.77698C75.6133 9.4406 75.5504 9.13978 75.4246 8.87451C75.3015 8.60923 75.1019 8.40139 74.8257 8.25098C74.5495 8.09783 74.183 8.02126 73.7263 8.02126H71.9378V15.52H70.9204ZM78.1218 15.52V9.21909H79.0571V10.1708H79.1227C79.2376 9.85902 79.4454 9.60606 79.7462 9.41189C80.0471 9.21772 80.3862 9.12064 80.7636 9.12064C80.8347 9.12064 80.9235 9.122 81.0302 9.12474C81.1369 9.12747 81.2175 9.13157 81.2722 9.13704V10.1216C81.2394 10.1134 81.1642 10.1011 81.0466 10.0846C80.9318 10.0655 80.8101 10.0559 80.6815 10.0559C80.3752 10.0559 80.1017 10.1202 79.8611 10.2487C79.6232 10.3745 79.4345 10.5496 79.295 10.7738C79.1583 10.9953 79.0899 11.2483 79.0899 11.5327V15.52H78.1218ZM84.7878 15.6513C84.2189 15.6513 83.7198 15.5159 83.2905 15.2452C82.8639 14.9744 82.5302 14.5957 82.2896 14.1089C82.0516 13.6221 81.9327 13.0532 81.9327 12.4024C81.9327 11.746 82.0516 11.1731 82.2896 10.6836C82.5302 10.194 82.8639 9.8139 83.2905 9.54316C83.7198 9.27242 84.2189 9.13704 84.7878 9.13704C85.3566 9.13704 85.8543 9.27242 86.281 9.54316C86.7103 9.8139 87.044 10.194 87.2819 10.6836C87.5226 11.1731 87.6429 11.746 87.6429 12.4024C87.6429 13.0532 87.5226 13.6221 87.2819 14.1089C87.044 14.5957 86.7103 14.9744 86.281 15.2452C85.8543 15.5159 85.3566 15.6513 84.7878 15.6513ZM84.7878 14.7816C85.2199 14.7816 85.5754 14.6709 85.8543 14.4493C86.1333 14.2278 86.3398 13.9366 86.4738 13.5756C86.6078 13.2146 86.6748 12.8235 86.6748 12.4024C86.6748 11.9812 86.6078 11.5888 86.4738 11.225C86.3398 10.8613 86.1333 10.5673 85.8543 10.3431C85.5754 10.1188 85.2199 10.0067 84.7878 10.0067C84.3557 10.0067 84.0002 10.1188 83.7212 10.3431C83.4423 10.5673 83.2358 10.8613 83.1018 11.225C82.9678 11.5888 82.9008 11.9812 82.9008 12.4024C82.9008 12.8235 82.9678 13.2146 83.1018 13.5756C83.2358 13.9366 83.4423 14.2278 83.7212 14.4493C84.0002 14.6709 84.3557 14.7816 84.7878 14.7816ZM91.9266 9.21909V10.0395H88.53V9.21909H91.9266ZM89.5473 15.52V8.34943C89.5473 7.98844 89.6321 7.68761 89.8016 7.44695C89.9712 7.20629 90.1913 7.0258 90.4621 6.90547C90.7328 6.78514 91.0186 6.72497 91.3194 6.72497C91.5574 6.72497 91.7515 6.74412 91.9019 6.7824C92.0524 6.82069 92.1645 6.85624 92.2383 6.88906L91.9594 7.7259C91.9102 7.70949 91.8418 7.68898 91.7543 7.66437C91.6695 7.63976 91.5574 7.62745 91.4179 7.62745C91.0979 7.62745 90.8668 7.70813 90.7246 7.86948C90.5852 8.03083 90.5154 8.26739 90.5154 8.57915V15.52H89.5473ZM97.487 10.6302L96.6174 10.8764C96.5627 10.7314 96.482 10.5906 96.3754 10.4538C96.2714 10.3144 96.1292 10.1995 95.9487 10.1093C95.7682 10.019 95.5371 9.97388 95.2555 9.97388C94.8699 9.97388 94.5485 10.0628 94.2915 10.2405C94.0371 10.4156 93.91 10.6384 93.91 10.9092C93.91 11.1498 93.9975 11.3399 94.1725 11.4794C94.3475 11.6189 94.621 11.7351 94.9929 11.8281L95.9282 12.0578C96.4916 12.1945 96.9114 12.4037 97.1876 12.6854C97.4638 12.9644 97.6019 13.324 97.6019 13.7643C97.6019 14.1253 97.498 14.448 97.2901 14.7324C97.085 15.0168 96.7979 15.2411 96.4287 15.4051C96.0595 15.5692 95.6301 15.6513 95.1406 15.6513C94.4979 15.6513 93.966 15.5118 93.5449 15.2329C93.1237 14.9539 92.8571 14.5464 92.7449 14.0104L93.6638 13.7807C93.7513 14.1198 93.9168 14.3741 94.1602 14.5437C94.4063 14.7132 94.7277 14.798 95.1242 14.798C95.5754 14.798 95.9337 14.7023 96.199 14.5109C96.467 14.3167 96.601 14.0842 96.601 13.8135C96.601 13.5947 96.5244 13.4115 96.3713 13.2638C96.2181 13.1134 95.9829 13.0013 95.6657 12.9274L94.6155 12.6813C94.0385 12.5446 93.6146 12.3326 93.3439 12.0455C93.0759 11.7556 92.9418 11.3932 92.9418 10.9584C92.9418 10.6029 93.0417 10.2884 93.2413 10.0149C93.4437 9.74143 93.7185 9.52675 94.0658 9.37087C94.4159 9.21499 94.8124 9.13704 95.2555 9.13704C95.879 9.13704 96.3685 9.27378 96.724 9.54726C97.0823 9.82074 97.3366 10.1817 97.487 10.6302Z" fill="#ffffff"/>
</svg>
