<svg width="21" height="24" viewBox="0 0 21 24" fill="none" xmlns="http://www.w3.org/2000/svg">
<path fill-rule="evenodd" clip-rule="evenodd" d="M10.1373 12.0541C10.0518 12.1338 10.3562 12.2374 9.87423 12.127C9.09279 12.104 7.65375 12.8182 6.97311 12.8182C6.95391 11.4838 7.19871 9.4208 7.42815 8.18048C7.69983 6.71456 8.47647 5.79104 9.78207 5.4512C9.87135 5.36192 9.82337 5.35616 9.98561 5.28416C10.0672 5.24864 10.0691 5.2592 10.1603 5.25152C11.0425 5.17664 11.8461 5.50976 12.4873 6.03008C13.168 6.58112 13.6336 7.472 13.6288 8.432C13.6202 10.0237 12.7101 11.0816 11.488 11.6182C11.1837 11.7517 10.4176 12.0858 10.1363 12.0541H10.1373ZM2.29311 23.5405C2.24223 23.2458 2.66463 21.9882 2.79519 21.6704C3.47583 20.0029 4.59999 18.6656 6.10335 17.6614C8.92383 15.7779 10.9408 16.664 13.6816 15.4659C19.2976 13.0093 19.456 6.41312 16.0019 2.888C12.3818 -0.806078 5.6944 0.00896313 3.35968 5.21696C2.40448 7.3472 2.3248 11.2275 2.28736 13.8819C2.26048 15.7664 2.19135 22.0026 2.29311 23.5414V23.5405Z" fill="#CC00C1"/>
<path fill-rule="evenodd" clip-rule="evenodd" d="M4.85345 19.7043L4.41571 20.2842C5.73283 21.5312 8.74723 22.3232 10.8189 22.1974C13.3101 22.0467 15.4384 20.9869 16.8026 19.7811C20.1693 16.808 21.256 12.031 19.313 7.86368C19.1651 7.54592 19.1594 7.58144 19.0058 7.49312C19.0163 7.9184 18.9856 9.05216 19.0547 9.37952C19.4589 11.2813 19.721 12.224 19.2122 14.4474C18.7475 16.4797 17.4323 18.1491 16.2707 19.1763C13.5453 21.5869 9.44035 22.1408 6.09475 20.4051C5.70595 20.2035 5.15489 19.7965 4.85345 19.7043Z" fill="#CC00C1"/>
<path fill-rule="evenodd" clip-rule="evenodd" d="M1.21602 7.98657C0.608338 8.71041 0.24258 11.2554 0.28194 12.5379C0.32322 13.8819 0.841619 16.1514 1.49346 16.9357C1.75074 13.8023 0.481614 13.5651 1.34369 9.93633C1.48193 9.35169 1.93313 8.43393 1.84673 7.85217C1.75937 7.33473 2.00225 7.37889 1.76321 7.05249L1.40417 7.80417C1.29953 7.97217 1.3821 7.87233 1.21602 7.98657Z" fill="#CC00C1"/>
</svg>
