<svg width="100" height="29" viewBox="0 0 157 29" fill="none" xmlns="http://www.w3.org/2000/svg">
<g clip-path="url(#clip0_40_2979)">
<path d="M51.5292 8.1651H54.8655L54.7465 12.3749H54.7769C55.4628 9.73716 56.9816 7.92828 60.0191 7.92828C63.206 7.92828 64.9627 10.0042 64.9627 13.6497C64.9627 14.5692 64.8741 15.7533 64.8134 16.3756H61.7759C61.8366 15.8138 61.8948 15.0706 61.8948 14.3904C61.8948 11.929 60.9431 10.7751 58.9763 10.7751C56.445 10.7751 54.868 12.909 54.868 16.4058V22.8074H51.5318V8.1651H51.5292Z" fill="#142837"/>
<path d="M65.4639 18.5977C65.4639 16.3756 67.0434 14.6272 70.972 14.6272H76.4218V13.5892C76.4218 11.3949 75.141 10.4174 72.5515 10.4174C70.2885 10.4174 69.0077 11.2765 69.0077 12.9065C69.0077 12.9947 69.0077 13.2315 69.0381 13.4683H65.9702C65.9398 13.2617 65.9094 12.8763 65.9094 12.6092C65.9094 9.6742 68.4711 7.92578 72.6679 7.92578C77.1356 7.92578 79.7555 10.0294 79.7555 13.884V22.8049H76.4193C76.48 22.0945 76.5686 20.7592 76.5686 19.5752H76.5383C76.0624 21.7393 74.3057 23.0443 71.058 23.0443C67.8104 23.0443 65.4589 21.4445 65.4589 18.5977H65.4639ZM76.4218 16.9072V16.6401H71.2707C69.3646 16.6401 68.5318 17.2926 68.5318 18.449C68.5318 19.7817 69.7241 20.5527 71.7491 20.5527C74.6373 20.5527 76.4244 19.1595 76.4244 16.9072H76.4218Z" fill="#142837"/>
<path d="M111.591 16.1388H100.573C100.752 18.9554 102.329 20.4645 104.83 20.4645C106.974 20.4645 108.432 19.5172 108.582 17.7965H111.589C111.47 21.0565 108.789 23.0418 104.77 23.0418C100.125 23.0418 97.2061 20.1974 97.2061 15.6022C97.2061 11.0069 100.125 7.92578 104.77 7.92578C108.939 7.92578 111.589 10.3872 111.589 14.9497V16.1363L111.591 16.1388ZM108.584 13.9167C108.584 11.7224 107.215 10.5081 104.803 10.5081C102.39 10.5081 101.051 11.6947 100.664 14.1233H108.584V13.9167Z" fill="#142837"/>
<path d="M126.002 18.4188H116.859L115.191 22.8049H111.498L119.479 3.3028H123.828L131.778 22.8049H127.64L126.002 18.4188ZM125.108 16.0481L121.476 6.32599H121.415L117.753 16.0481H125.108Z" fill="#142837"/>
<path d="M132.257 3.20959H135.593V22.8075H132.257V3.20959Z" fill="#142837"/>
<path d="M137.198 3.20959H140.534V22.8075H137.198V3.20959Z" fill="#142837"/>
<path d="M36.3112 3.30536V6.23786H42.3863V6.25045H45.9478L43.3735 8.81261L42.3863 9.79515V22.8075H45.9604V6.23786H52.0355V3.30536H36.3112Z" fill="#142837"/>
<path d="M153.725 8.16512L149.586 19.4567H149.525L148.186 22.8049C147.085 25.5308 146.369 26.3018 144.822 26.3018C144.078 26.3018 143.392 26.1229 142.977 26.0045V28.612C143.394 28.7606 144.288 28.9974 145.419 28.9974C148.338 28.9974 149.768 27.4859 151.406 23.0997L157.005 8.1626H153.73L153.725 8.16512Z" fill="#142837"/>
<path d="M141.01 8.16522L146.776 21.4144L149.528 19.4569L144.852 8.16522H141.01Z" fill="#142837"/>
<path d="M93.3308 3.20959V10.828H93.3004C92.7055 9.10986 90.9767 8.01144 88.2074 8.01144C83.8309 8.01144 81.0616 11.0649 81.0616 15.4812C81.0616 19.8976 83.7423 23.1274 87.9999 23.1274C91.007 23.1274 92.8549 21.646 93.4193 19.3333H93.4776C93.4194 20.7567 93.389 22.029 93.3282 22.8906H96.6644V3.20959H93.3282H93.3308ZM93.3308 15.7181C93.3308 18.5624 91.4854 20.4015 88.6859 20.4015C86.066 20.4015 84.3675 18.386 84.3675 15.4812C84.3675 12.5765 86.0938 10.7399 88.7441 10.7399C91.3943 10.7399 93.3308 12.4001 93.3308 15.0076V15.7181Z" fill="#142837"/>
<path d="M21.0704 0H3.67542C1.64554 0 0 1.63777 0 3.65807V20.9709C0 22.9912 1.64554 24.629 3.67542 24.629H21.0704C23.1002 24.629 24.7458 22.9912 24.7458 20.9709V3.65807C24.7458 1.63777 23.1002 0 21.0704 0Z" fill="#16C6A4"/>
<path d="M18.0784 18.8521C18.0784 18.7766 18.0176 18.7161 17.9417 18.7161C15.656 18.7161 13.8031 17.008 13.8031 14.9018V10.7701C13.8031 10.6946 13.7423 10.6341 13.6664 10.6341H9.26701C9.19107 10.6341 9.13032 10.6946 9.13032 10.7701V15.053C9.13032 19.3409 12.9019 22.815 17.5569 22.815H17.9417C18.0176 22.815 18.0784 22.7546 18.0784 22.679V18.8496V18.8521Z" fill="white"/>
<path d="M16.6229 5.35105C17.41 5.35105 18.048 4.71602 18.048 3.93266C18.048 3.14931 17.41 2.51428 16.6229 2.51428C15.8358 2.51428 15.1978 3.14931 15.1978 3.93266C15.1978 4.71602 15.8358 5.35105 16.6229 5.35105Z" fill="white"/>
<path d="M14.2005 2.09106H9.86186C9.78339 2.09106 9.72011 2.15657 9.72517 2.23467C9.73023 2.31277 9.73277 2.38835 9.73277 2.46896C9.73277 4.34083 8.46459 5.90281 6.7737 6.28071C6.71042 6.29583 6.66486 6.34873 6.66486 6.41423V10.9843C6.66486 11.0649 6.73573 11.1279 6.8142 11.1203C11.0389 10.687 14.3397 6.97856 14.3397 2.46896C14.3397 2.38583 14.3397 2.30521 14.3346 2.22459C14.3346 2.15153 14.2713 2.09106 14.1979 2.09106H14.2005Z" fill="white"/>
</g>
<defs>
<clipPath id="clip0_40_2979">
<rect width="157" height="29" fill="white"/>
</clipPath>
</defs>
</svg>
